<?xml version="1.0" encoding="utf-8"?>
<!-- Generator: Adobe Illustrator 19.0.0, SVG Export Plug-In . SVG Version: 6.00 Build 0)  -->
<svg version="1.1" id="github" xmlns="http://www.w3.org/2000/svg" xmlns:xlink="http://www.w3.org/1999/xlink" x="0px" y="0px"
	 viewBox="-468 186 100 100" style="enable-background:new -468 186 100 100;" xml:space="preserve">
<style type="text/css">
	.st0{fill:#9896E8;}
	.st1{fill:#F7F7F7;}
</style>
<circle class="st0" cx="-418" cy="236" r="48"/>
<path class="st1" d="M-418,211.5c-13.5,0-24.5,11-24.5,24.5s11,24.5,24.5,24.5s24.5-11,24.5-24.5S-404.5,211.5-418,211.5z
	 M-403.5,250.5c-1.9,1.9-4.1,3.4-6.5,4.4c-0.6,0.3-1.3,0.5-1.9,0.7V252c0-1.9-0.7-3.3-2-4.3c0.8-0.1,1.6-0.2,2.3-0.3
	c0.7-0.1,1.4-0.4,2.2-0.6s1.5-0.6,2.1-1c0.6-0.4,1.2-0.9,1.8-1.5s1-1.3,1.4-2c0.4-0.8,0.7-1.7,0.9-2.7c0.2-1.1,0.3-2.2,0.3-3.5
	c0-2.5-0.8-4.6-2.4-6.3c0.7-1.9,0.7-4-0.2-6.2l-0.6-0.1c-0.4,0-1.2,0.1-2.2,0.5c-1.1,0.4-2.3,1.1-3.6,2c-1.9-0.5-3.9-0.8-5.9-0.8
	c-2.1,0-4,0.3-5.9,0.8c-0.8-0.6-1.6-1-2.4-1.4s-1.4-0.6-1.8-0.8c-0.5-0.1-0.9-0.2-1.3-0.3c-0.4,0-0.6,0-0.8,0s-0.2,0-0.2,0
	c-0.9,2.3-1,4.3-0.2,6.2c-1.6,1.7-2.4,3.8-2.4,6.3c0,1.3,0.1,2.4,0.3,3.5c0.2,1.1,0.5,2,0.9,2.7c0.4,0.8,0.9,1.4,1.4,2
	c0.6,0.6,1.2,1.1,1.8,1.5c0.6,0.4,1.3,0.7,2.1,1c0.8,0.3,1.5,0.5,2.2,0.6c0.7,0.1,1.5,0.3,2.3,0.3c-1.3,0.9-2,2.3-2,4.3v3.7
	c-0.7-0.2-1.4-0.5-2.1-0.8c-2.4-1-4.7-2.5-6.5-4.4c-1.9-1.9-3.4-4.1-4.4-6.5c-1.1-2.5-1.6-5.2-1.6-8s0.5-5.5,1.6-8
	c1-2.4,2.5-4.7,4.4-6.5s4.1-3.4,6.5-4.4c2.5-1.1,5.2-1.6,8-1.6s5.5,0.5,8,1.6c2.5,1,4.7,2.5,6.5,4.4s3.4,4.1,4.4,6.5
	c1.1,2.5,1.6,5.2,1.6,8s-0.5,5.5-1.6,8C-400.1,246.5-401.6,248.7-403.5,250.5L-403.5,250.5z"/>
</svg>
