<?xml version="1.0" encoding="utf-8"?>
<!-- Generator: Adobe Illustrator 19.0.0, SVG Export Plug-In . SVG Version: 6.00 Build 0)  -->
<svg version="1.1" xmlns="http://www.w3.org/2000/svg" xmlns:xlink="http://www.w3.org/1999/xlink" x="0px" y="0px"
	 viewBox="0 0 336 336" style="enable-background:new 0 0 336 336;" xml:space="preserve">
<style type="text/css">
	.st0{fill:none;}
	.st1{fill:#3A291A;}
	.st2{fill:#7F5C38;}
	.st3{fill:#BA8156;}
	.st4{fill:#FBEBE3;}
	.st5{fill:#E8F2F7;}
	.st6{fill:#4C4C4C;}
	.st7{fill:#67C9BD;}
	.st8{fill:#79E2D0;}
	.st9{fill:#81EFDA;}
	.st10{fill:#F46E6E;}
	.st11{fill:#F78B8B;}
	.st12{fill:#777777;}
	.st13{fill:#C1C1C1;}
	.st14{fill:#CEDFEA;}
	.st15{opacity:0.35;fill:url(#SVGID_1_);}
	.st16{display:none;}
	.st17{display:inline;}
	.st18{fill:#BD31FF;}
	.st19{fill:#A02DE2;}
	.st20{fill:#4B0082;}
	.st21{fill:#6600CC;}
	.st22{fill:#2633AA;}
	.st23{fill:#3333FF;}
	.st24{fill:#009900;}
	.st25{fill:#007000;}
	.st26{fill:#E5C12C;}
	.st27{fill:#F2DA2F;}
	.st28{fill:#FF7D12;}
	.st29{fill:#DB6800;}
	.st30{fill:#E22020;}
	.st31{fill:#FF2722;}
	.st32{display:none;fill:#777C84;}
	.st33{display:none;fill:#515459;}
</style>
<pattern  x="-96" y="-133" width="9" height="9" patternUnits="userSpaceOnUse" id="New_Pattern" viewBox="0 -9 9 9" style="overflow:visible;">
	<g>
		<polygon class="st0" points="0,-9 9,-9 9,0 0,0 		"/>
		<polygon class="st1" points="9,-6 6,-6 6,-9 9,-9 		"/>
		<polygon class="st1" points="6,-3 3,-3 3,-6 6,-6 		"/>
		<polygon class="st1" points="3,0 0,0 0,-3 3,-3 		"/>
	</g>
</pattern>
<g id="Layer_6">
	<rect x="78.7" y="101.1" class="st2" width="3" height="3"/>
	<rect x="75.7" y="101.1" class="st3" width="3" height="3"/>
	<rect x="72.6" y="101.1" class="st2" width="3" height="3"/>
	<rect x="75.7" y="98" class="st2" width="3" height="3"/>
</g>
<g id="Layer_5">
	<rect x="-2.4" y="-7.5" class="st4" width="339.9" height="346"/>
</g>
<g id="Layer_4">
	<rect x="16.8" y="139.6" class="st5" width="108.6" height="77.1"/>
	<rect x="206.6" y="139.6" class="st5" width="108.6" height="77.1"/>
</g>
<g id="Layer_2">
	<rect x="186.3" y="233" class="st6" width="151.2" height="3"/>
	<rect x="-3.5" y="233" class="st6" width="151.2" height="3"/>
	<rect x="147.7" y="138.6" class="st6" width="38.6" height="3"/>
	<g>
		<rect x="69.6" y="175.1" width="3" height="3"/>
		<rect x="72.6" y="175.1" class="st7" width="3" height="3"/>
		<rect x="72.6" y="172.1" class="st8" width="3" height="3"/>
		<rect x="66.5" y="172.1" class="st8" width="3" height="3"/>
		<rect x="66.5" y="178.2" class="st8" width="3" height="3"/>
		<rect x="72.6" y="178.2" class="st8" width="3" height="3"/>
		<rect x="69.6" y="181.2" class="st9" width="3" height="3"/>
		<rect x="75.7" y="175.1" class="st9" width="3" height="3"/>
		<rect x="69.6" y="169.1" class="st9" width="3" height="3"/>
		<rect x="63.5" y="175.1" class="st9" width="3" height="3"/>
		<rect x="69.6" y="178.2" class="st7" width="3" height="3"/>
		<rect x="66.5" y="175.1" class="st7" width="3" height="3"/>
		<rect x="69.6" y="172.1" class="st7" width="3" height="3"/>
	</g>
	<g>
		<rect x="69.6" y="272.5" class="st10" width="3" height="3"/>
		<rect x="72.6" y="272.5" class="st11" width="3" height="3"/>
		<rect x="72.6" y="269.5" class="st11" width="3" height="3"/>
		<rect x="66.5" y="269.5" class="st11" width="3" height="3"/>
		<rect x="66.5" y="275.6" class="st11" width="3" height="3"/>
		<rect x="72.6" y="275.6" class="st11" width="3" height="3"/>
		<rect x="69.6" y="278.6" class="st11" width="3" height="3"/>
		<rect x="75.7" y="272.5" class="st11" width="3" height="3"/>
		<rect x="69.6" y="266.5" class="st11" width="3" height="3"/>
		<rect x="63.5" y="272.5" class="st11" width="3" height="3"/>
		<rect x="69.6" y="275.6" class="st11" width="3" height="3"/>
		<rect x="66.5" y="272.5" class="st11" width="3" height="3"/>
		<rect x="69.6" y="269.5" class="st11" width="3" height="3"/>
	</g>
	<g>
		<rect x="259.3" y="272.5" class="st10" width="3" height="3"/>
		<rect x="262.4" y="272.5" class="st11" width="3" height="3"/>
		<rect x="262.4" y="269.5" class="st11" width="3" height="3"/>
		<rect x="256.3" y="269.5" class="st11" width="3" height="3"/>
		<rect x="256.3" y="275.6" class="st11" width="3" height="3"/>
		<rect x="262.4" y="275.6" class="st11" width="3" height="3"/>
		<rect x="259.3" y="278.6" class="st11" width="3" height="3"/>
		<rect x="265.4" y="272.5" class="st11" width="3" height="3"/>
		<rect x="259.3" y="266.5" class="st11" width="3" height="3"/>
		<rect x="253.2" y="272.5" class="st11" width="3" height="3"/>
		<rect x="259.3" y="275.6" class="st11" width="3" height="3"/>
		<rect x="256.3" y="272.5" class="st11" width="3" height="3"/>
		<rect x="259.3" y="269.5" class="st11" width="3" height="3"/>
	</g>
	<g>
		<rect x="259.3" y="175.1" width="3" height="3"/>
		<rect x="262.4" y="175.1" class="st7" width="3" height="3"/>
		<rect x="262.4" y="172.1" class="st8" width="3" height="3"/>
		<rect x="256.3" y="172.1" class="st8" width="3" height="3"/>
		<rect x="256.3" y="178.2" class="st8" width="3" height="3"/>
		<rect x="262.4" y="178.2" class="st8" width="3" height="3"/>
		<rect x="259.3" y="181.2" class="st9" width="3" height="3"/>
		<rect x="265.4" y="175.1" class="st9" width="3" height="3"/>
		<rect x="259.3" y="169.1" class="st9" width="3" height="3"/>
		<rect x="253.2" y="175.1" class="st9" width="3" height="3"/>
		<rect x="259.3" y="178.2" class="st7" width="3" height="3"/>
		<rect x="256.3" y="175.1" class="st7" width="3" height="3"/>
		<rect x="259.3" y="172.1" class="st7" width="3" height="3"/>
	</g>
	<path d="M-3,120v113h151v-94h38v94h151V120H-3z M125,217H17v-77h108V217z M315,217H207v-77h108V217z"/>
	<g>
		<rect x="84.8" y="113.2" class="st2" width="3" height="3"/>
		<rect x="81.8" y="110.2" class="st2" width="3" height="3"/>
		<rect x="78.7" y="107.2" class="st2" width="3" height="3"/>
		<rect x="75.7" y="104.1" class="st2" width="3" height="3"/>
		<rect x="54.4" y="113.2" class="st2" width="3" height="3"/>
		<rect x="57.4" y="113.2" class="st3" width="3" height="3"/>
		<rect x="60.5" y="110.2" class="st3" width="3" height="3"/>
		<rect x="63.5" y="107.2" class="st3" width="3" height="3"/>
		<rect x="66.5" y="104.1" class="st3" width="3" height="3"/>
		<rect x="72.6" y="104.1" class="st3" width="3" height="3"/>
		<rect x="75.7" y="107.2" class="st3" width="3" height="3"/>
		<rect x="78.7" y="110.2" class="st3" width="3" height="3"/>
		<rect x="81.8" y="113.2" class="st3" width="3" height="3"/>
		<rect x="57.4" y="110.2" class="st2" width="3" height="3"/>
		<rect x="60.5" y="107.2" class="st2" width="3" height="3"/>
		<rect x="63.5" y="104.1" class="st2" width="3" height="3"/>
		<rect x="72.6" y="101.1" class="st2" width="3" height="3"/>
		<rect x="69.6" y="101.1" class="st2" width="3" height="3"/>
		<rect x="66.5" y="101.1" class="st2" width="3" height="3"/>
	</g>
	<rect x="158.9" y="255.3" width="6.1" height="3"/>
	<rect x="169" y="255.3" width="6.1" height="3"/>
	<rect x="158.9" y="258.3" class="st12" width="2" height="8.1"/>
	<rect x="160.9" y="266.5" class="st12" width="2" height="2"/>
	<rect x="171.1" y="266.5" class="st12" width="2" height="2"/>
	<rect x="162.9" y="266.5" class="st13" width="8.1" height="2"/>
	<rect x="162.9" y="268.5" class="st12" width="8.1" height="2"/>
	<rect x="165" y="264.4" class="st12" width="4.1" height="2"/>
	<rect x="162.9" y="258.3" class="st12" width="2" height="8.1"/>
	<rect x="169" y="258.3" class="st12" width="2" height="8.1"/>
	<rect x="173.1" y="258.3" class="st12" width="2" height="8.1"/>
	<rect x="160.9" y="258.3" class="st13" width="2" height="8.1"/>
	<rect x="171.1" y="258.3" class="st13" width="2" height="8.1"/>
	<rect x="161.9" y="297.9" width="2" height="2"/>
	<rect x="162.9" y="298.9" width="2" height="2"/>
	<rect x="170" y="297.9" width="2" height="2"/>
	<rect x="169" y="298.9" width="2" height="2"/>
	<rect x="164" y="299.9" width="6.1" height="2"/>
	<rect x="164" y="302" class="st11" width="6.1" height="2"/>
</g>
<g id="hair">
	<polyline class="st2" points="64,87 64,87 67,87 67,84 67,84 67,84 67,84 70,84 70,81 70,81 70,81 73,81 73,78 73,78 76,78 76,75 
		78,75 78,72 78.1,72 81,72 81,69 81.1,69 84,69 84,66 84.1,66 87,66 87,63 87.1,63 90,63 90,59 90.1,59 93,59 93,56 93.1,56 96,56 
		96,53 96.2,53 99,53 99,50 99.2,50 102,50 102,47 102.2,47 105,47 105,44 105.2,44 108,44 108,41.2 108.2,41 111,41 111,44 
		113.6,44 114,44 114,47 117,47 117,50 120.3,50 120,50.4 120,53 123.3,53 123,53.5 123,56 126.3,56 126,56.6 126,59 129.3,59 
		129,59.7 129,63 133,63 133,66 136,66 136,69 139,69 139,72 142,72 142,75 144,75 144,78 147,78 147,78 147,81 150,81 150,81 
		150,84 153,84 153,84 153,87 156,87 156,87 156,90 159,90 159,90 159,93 162,93 162,96 165,96 165,99 168,99 168,99 168,102 
		171,102 171,105 174,105 174,108 177,108 177,108 177,111 180,111 180,114 183.3,114 183.2,117 186.3,117 186.3,120 189.3,120 
		337,120 337,118.3 337,117.3 337,-7 -3,-7 -3,117.3 -3,119.3 -3,120 30,120 33.1,120 33,117 33.1,117 36,117 36,114 36,114 39,114 
		39,111 39,111 42,111 42,108 45,108 45,105 48,105 48,102 51,102 51,99 51,99 54,99 54,96 57,96 57,93 57.6,93 60,92.9 60,90 
		60,90 64,90 64,87 	"/>
	<polygon class="st14" points="315,217 315,140 314.4,140 312,140 312,143 312.3,143 312,142.7 312,143 310,143 310,146 310.2,146 
		310,145.8 310,146 308,146 308,149 308,149 308,148.9 308,149 306,149 306,152 305.9,152 306,152 306,152 304,152 304,155 
		303.8,155 304,155 304,155 302,155 302,158 301.7,158 302,158.1 302,158 299,158 299,161 299.6,161 299,161.2 299,161 297,161 
		297,164 297.4,164 297,164.3 297,164 295,164 295,167 295.3,167 295,167.4 295,167 293,167 293,170 293.2,170 293,170.5 293,170 
		291,170 291,173 291.1,173 291,173.6 291,173 289,173 289,176 289,176 289,176.6 289,176 287,176 287,179 286.8,179 287,179.7 
		287,179 285,179 285,182 284.7,182 285,182.8 285,182 283,182 283,185 281,185 281,188 280.5,188 279,188 279,191.1 278.3,191 
		277,191 277,194.1 276.2,194 275,194 275,197.2 274.1,197 273,197 273,200.3 272,201 269,201 269,203.4 269.9,204 267,204 
		267,206.5 267.7,207 265,207 265,209.6 265.6,210 263,210 263,212.7 263.5,213 261,213 261,217 	"/>
	<polygon class="st14" points="126,217 126,140 125.7,140 123,140 123,143 123.6,143 123,142.7 123,143 121,143 121,146 121.4,146 
		121,145.8 121,146 119,146 119,149 119.3,149 119,148.9 119,149 117,149 117,152 117.2,152 117,152 117,152 115,152 115,155 
		115.1,155 115,155 115,155 113,155 113,158 113,158 113,158.1 113,158 110,158 110,161 110.8,161 110,161.2 110,161 108,161 
		108,164 108.7,164 108,164.3 108,164 106,164 106,167 106.6,167 106,167.4 106,167 104,167 104,170 104.5,170 104,170.5 104,170 
		102,170 102,173 102.3,173 102,173.6 102,173 100,173 100,176 100.2,176 100,176.6 100,176 98,176 98,179 98.1,179 98,179.7 
		98,179 96,179 96,182 96,182 96,182.8 96,182 94,182 94,185 92,185 92,188 91.7,188 90,188 90,191.1 89.6,191 88,191 88,194.1 
		87.5,194 86,194 86,197.2 85.4,197 84,197 84,200.3 83.3,201 81,201 81,203.4 81.1,204 79,204 79,206.5 79,207 77,207 77,209.6 
		76.9,210 75,210 75,212.7 74.8,213 73,213 73,217 	"/>
	<pattern  id="SVGID_1_" xlink:href="#New_Pattern" patternTransform="matrix(1.0147 0 0 1.0147 106.349 104.5499)">
	</pattern>
	<polyline class="st15" points="64,86 64,86 67,86 67,83 67,83 67,83 67,83 70,83 70,80 70,80 70,80 73,80 73,77 73,77 76,77 76,74 
		78,74 78,71 78.1,71 81,71 81,68 81.1,68 84,68 84,65 84.1,65 87,65 87,61 87.1,61 90,61 90,58 90.1,58 93,58 93,55 93.1,55 96,55 
		96,52 96.2,52 99,52 99,49 99.2,49 102,49 102,46 102.2,46 105,46 105,43 105.2,43 108,43 108,40.2 108.2,40 111,40 111,43 
		113.6,43 114,43 114,46 117,46 117,49 120.3,49 120,49.4 120,52 123.3,52 123,52.5 123,55 126.3,55 126,55.6 126,58 129.3,58 
		129,58.6 129,61 133,61 133,65 136,65 136,68 139,68 139,71 142,71 142,74 144,74 144,77 147,77 147,77 147,80 150,80 150,80 
		150,83 153,83 153,83 153,86 156,86 156,86 156,89 159,89 159,89 159,92 162,92 162,95 165,95 165,98 168,98 168,98 168,101 
		171,101 171,104 174,104 174,107 177,107 177,107 177,110 180,110 180,113 183.3,113 183.2,116 186.3,116 186.3,120 189.3,120 
		337,120 337,117.3 337,116.3 337,-6 -3,-6 -3,116.3 -3,118.3 -3,120 30,120 33.1,120 33,116 33.1,116 36,116 36,113 36,113 39,113 
		39,110 39,110 42,110 42,107 45,107 45,104 48,104 48,101 51,101 51,98 51,98 54,98 54,95 57,94.9 57,92 57.6,92 60,91.9 60,89 
		60,89 64,89 64,86 	"/>
</g>
<g id="Layer_9" class="st16">
	<g class="st17">
		<g>
			<rect x="246.9" y="285.5" class="st18" width="2.9" height="2.9"/>
			<rect x="249.8" y="285.5" class="st19" width="2.9" height="2.9"/>
			<rect x="252.7" y="285.5" class="st18" width="2.9" height="2.9"/>
			<rect x="255.6" y="285.5" class="st19" width="2.9" height="2.9"/>
			<rect x="258.5" y="285.5" class="st18" width="2.9" height="2.9"/>
			<rect x="261.5" y="285.5" class="st19" width="2.9" height="2.9"/>
			<rect x="264.4" y="285.5" class="st18" width="2.9" height="2.9"/>
			<rect x="267.3" y="285.5" class="st19" width="2.9" height="2.9"/>
			<rect x="270.2" y="285.5" class="st18" width="2.9" height="2.9"/>
			<rect x="273.1" y="285.5" class="st19" width="2.9" height="2.9"/>
			<rect x="246.9" y="282.5" class="st20" width="2.9" height="2.9"/>
			<rect x="249.8" y="282.5" class="st21" width="2.9" height="2.9"/>
			<rect x="252.7" y="282.5" class="st20" width="2.9" height="2.9"/>
			<rect x="255.6" y="282.5" class="st21" width="2.9" height="2.9"/>
			<rect x="258.5" y="282.5" class="st20" width="2.9" height="2.9"/>
			<rect x="261.5" y="282.5" class="st21" width="2.9" height="2.9"/>
			<rect x="264.4" y="282.5" class="st20" width="2.9" height="2.9"/>
			<rect x="267.3" y="282.5" class="st21" width="2.9" height="2.9"/>
			<rect x="270.2" y="282.5" class="st20" width="2.9" height="2.9"/>
			<rect x="273.1" y="282.5" class="st21" width="2.9" height="2.9"/>
			<rect x="246.9" y="279.6" class="st22" width="2.9" height="2.9"/>
			<rect x="249.8" y="279.6" class="st23" width="2.9" height="2.9"/>
			<rect x="252.7" y="279.6" class="st22" width="2.9" height="2.9"/>
			<rect x="255.6" y="279.6" class="st23" width="2.9" height="2.9"/>
			<rect x="258.5" y="279.6" class="st22" width="2.9" height="2.9"/>
			<rect x="261.5" y="279.6" class="st23" width="2.9" height="2.9"/>
			<rect x="264.4" y="279.6" class="st22" width="2.9" height="2.9"/>
			<rect x="267.3" y="279.6" class="st23" width="2.9" height="2.9"/>
			<rect x="270.2" y="279.6" class="st22" width="2.9" height="2.9"/>
			<rect x="273.1" y="279.6" class="st23" width="2.9" height="2.9"/>
			<rect x="246.9" y="276.7" class="st24" width="2.9" height="2.9"/>
			<rect x="249.8" y="276.7" class="st25" width="2.9" height="2.9"/>
			<rect x="252.7" y="276.7" class="st24" width="2.9" height="2.9"/>
			<rect x="255.6" y="276.7" class="st25" width="2.9" height="2.9"/>
			<rect x="258.5" y="276.7" class="st24" width="2.9" height="2.9"/>
			<rect x="261.5" y="276.7" class="st25" width="2.9" height="2.9"/>
			<rect x="264.4" y="276.7" class="st24" width="2.9" height="2.9"/>
			<rect x="267.3" y="276.7" class="st25" width="2.9" height="2.9"/>
			<rect x="270.2" y="276.7" class="st24" width="2.9" height="2.9"/>
			<rect x="273.1" y="276.7" class="st25" width="2.9" height="2.9"/>
			<rect x="246.9" y="273.8" class="st26" width="2.9" height="2.9"/>
			<rect x="249.8" y="273.8" class="st27" width="2.9" height="2.9"/>
			<rect x="252.7" y="273.8" class="st26" width="2.9" height="2.9"/>
			<rect x="255.6" y="273.8" class="st27" width="2.9" height="2.9"/>
			<rect x="258.5" y="273.8" class="st26" width="2.9" height="2.9"/>
			<rect x="261.5" y="273.8" class="st27" width="2.9" height="2.9"/>
			<rect x="264.4" y="273.8" class="st26" width="2.9" height="2.9"/>
			<rect x="267.3" y="273.8" class="st27" width="2.9" height="2.9"/>
			<rect x="270.2" y="273.8" class="st26" width="2.9" height="2.9"/>
			<rect x="273.1" y="273.8" class="st27" width="2.9" height="2.9"/>
			<rect x="246.9" y="270.9" class="st28" width="2.9" height="2.9"/>
			<rect x="249.8" y="270.9" class="st29" width="2.9" height="2.9"/>
			<rect x="252.7" y="270.9" class="st28" width="2.9" height="2.9"/>
			<rect x="255.6" y="270.9" class="st29" width="2.9" height="2.9"/>
			<rect x="258.5" y="270.9" class="st28" width="2.9" height="2.9"/>
			<rect x="261.5" y="270.9" class="st29" width="2.9" height="2.9"/>
			<rect x="264.4" y="270.9" class="st28" width="2.9" height="2.9"/>
			<rect x="267.3" y="270.9" class="st29" width="2.9" height="2.9"/>
			<rect x="270.2" y="270.9" class="st28" width="2.9" height="2.9"/>
			<rect x="273.1" y="270.9" class="st29" width="2.9" height="2.9"/>
			<rect x="246.9" y="268" class="st30" width="2.9" height="2.9"/>
			<rect x="249.8" y="268" class="st31" width="2.9" height="2.9"/>
			<rect x="252.7" y="268" class="st30" width="2.9" height="2.9"/>
			<rect x="255.6" y="268" class="st31" width="2.9" height="2.9"/>
			<rect x="258.5" y="268" class="st30" width="2.9" height="2.9"/>
			<rect x="261.5" y="268" class="st31" width="2.9" height="2.9"/>
			<rect x="264.4" y="268" class="st30" width="2.9" height="2.9"/>
			<rect x="267.3" y="268" class="st31" width="2.9" height="2.9"/>
			<rect x="270.2" y="268" class="st30" width="2.9" height="2.9"/>
			<rect x="273.1" y="268" class="st31" width="2.9" height="2.9"/>
		</g>
		<rect x="244" y="285.5" class="st19" width="2.9" height="2.9"/>
		<rect x="244" y="282.5" class="st21" width="2.9" height="2.9"/>
		<rect x="244" y="279.6" class="st23" width="2.9" height="2.9"/>
		<rect x="244" y="276.7" class="st25" width="2.9" height="2.9"/>
		<rect x="244" y="273.8" class="st27" width="2.9" height="2.9"/>
		<rect x="244" y="270.9" class="st29" width="2.9" height="2.9"/>
		<rect x="244" y="268" class="st31" width="2.9" height="2.9"/>
		<rect x="244" y="288.4" class="st32" width="2.9" height="2.9"/>
		<rect x="244" y="291.3" class="st32" width="2.9" height="2.9"/>
		<rect x="244" y="294.2" class="st32" width="2.9" height="2.9"/>
		<rect x="244" y="297.1" class="st32" width="2.9" height="2.9"/>
		<rect x="246.9" y="288.4" class="st33" width="0.6" height="2.9"/>
		<rect x="246.9" y="291.3" class="st33" width="0.6" height="2.9"/>
		<rect x="246.9" y="294.2" class="st33" width="0.6" height="2.9"/>
		<rect x="246.9" y="297.1" class="st33" width="0.6" height="2.9"/>
	</g>
	<g class="st17">
		<g>
			<rect x="60.4" y="285.5" class="st18" width="2.9" height="2.9"/>
			<rect x="63.3" y="285.5" class="st19" width="2.9" height="2.9"/>
			<rect x="66.2" y="285.5" class="st18" width="2.9" height="2.9"/>
			<rect x="69.1" y="285.5" class="st19" width="2.9" height="2.9"/>
			<rect x="72" y="285.5" class="st18" width="2.9" height="2.9"/>
			<rect x="75" y="285.5" class="st19" width="2.9" height="2.9"/>
			<rect x="77.9" y="285.5" class="st18" width="2.9" height="2.9"/>
			<rect x="80.8" y="285.5" class="st19" width="2.9" height="2.9"/>
			<rect x="83.7" y="285.5" class="st18" width="2.9" height="2.9"/>
			<rect x="86.6" y="285.5" class="st19" width="2.9" height="2.9"/>
			<rect x="60.4" y="282.5" class="st20" width="2.9" height="2.9"/>
			<rect x="63.3" y="282.5" class="st21" width="2.9" height="2.9"/>
			<rect x="66.2" y="282.5" class="st20" width="2.9" height="2.9"/>
			<rect x="69.1" y="282.5" class="st21" width="2.9" height="2.9"/>
			<rect x="72" y="282.5" class="st20" width="2.9" height="2.9"/>
			<rect x="75" y="282.5" class="st21" width="2.9" height="2.9"/>
			<rect x="77.9" y="282.5" class="st20" width="2.9" height="2.9"/>
			<rect x="80.8" y="282.5" class="st21" width="2.9" height="2.9"/>
			<rect x="83.7" y="282.5" class="st20" width="2.9" height="2.9"/>
			<rect x="86.6" y="282.5" class="st21" width="2.9" height="2.9"/>
			<rect x="60.4" y="279.6" class="st22" width="2.9" height="2.9"/>
			<rect x="63.3" y="279.6" class="st23" width="2.9" height="2.9"/>
			<rect x="66.2" y="279.6" class="st22" width="2.9" height="2.9"/>
			<rect x="69.1" y="279.6" class="st23" width="2.9" height="2.9"/>
			<rect x="72" y="279.6" class="st22" width="2.9" height="2.9"/>
			<rect x="75" y="279.6" class="st23" width="2.9" height="2.9"/>
			<rect x="77.9" y="279.6" class="st22" width="2.9" height="2.9"/>
			<rect x="80.8" y="279.6" class="st23" width="2.9" height="2.9"/>
			<rect x="83.7" y="279.6" class="st22" width="2.9" height="2.9"/>
			<rect x="86.6" y="279.6" class="st23" width="2.9" height="2.9"/>
			<rect x="60.4" y="276.7" class="st24" width="2.9" height="2.9"/>
			<rect x="63.3" y="276.7" class="st25" width="2.9" height="2.9"/>
			<rect x="66.2" y="276.7" class="st24" width="2.9" height="2.9"/>
			<rect x="69.1" y="276.7" class="st25" width="2.9" height="2.9"/>
			<rect x="72" y="276.7" class="st24" width="2.9" height="2.9"/>
			<rect x="75" y="276.7" class="st25" width="2.9" height="2.9"/>
			<rect x="77.9" y="276.7" class="st24" width="2.9" height="2.9"/>
			<rect x="80.8" y="276.7" class="st25" width="2.9" height="2.9"/>
			<rect x="83.7" y="276.7" class="st24" width="2.9" height="2.9"/>
			<rect x="86.6" y="276.7" class="st25" width="2.9" height="2.9"/>
			<rect x="60.4" y="273.8" class="st26" width="2.9" height="2.9"/>
			<rect x="63.3" y="273.8" class="st27" width="2.9" height="2.9"/>
			<rect x="66.2" y="273.8" class="st26" width="2.9" height="2.9"/>
			<rect x="69.1" y="273.8" class="st27" width="2.9" height="2.9"/>
			<rect x="72" y="273.8" class="st26" width="2.9" height="2.9"/>
			<rect x="75" y="273.8" class="st27" width="2.9" height="2.9"/>
			<rect x="77.9" y="273.8" class="st26" width="2.9" height="2.9"/>
			<rect x="80.8" y="273.8" class="st27" width="2.9" height="2.9"/>
			<rect x="83.7" y="273.8" class="st26" width="2.9" height="2.9"/>
			<rect x="86.6" y="273.8" class="st27" width="2.9" height="2.9"/>
			<rect x="60.4" y="270.9" class="st28" width="2.9" height="2.9"/>
			<rect x="63.3" y="270.9" class="st29" width="2.9" height="2.9"/>
			<rect x="66.2" y="270.9" class="st28" width="2.9" height="2.9"/>
			<rect x="69.1" y="270.9" class="st29" width="2.9" height="2.9"/>
			<rect x="72" y="270.9" class="st28" width="2.9" height="2.9"/>
			<rect x="75" y="270.9" class="st29" width="2.9" height="2.9"/>
			<rect x="77.9" y="270.9" class="st28" width="2.9" height="2.9"/>
			<rect x="80.8" y="270.9" class="st29" width="2.9" height="2.9"/>
			<rect x="83.7" y="270.9" class="st28" width="2.9" height="2.9"/>
			<rect x="86.6" y="270.9" class="st29" width="2.9" height="2.9"/>
			<rect x="60.4" y="268" class="st30" width="2.9" height="2.9"/>
			<rect x="63.3" y="268" class="st31" width="2.9" height="2.9"/>
			<rect x="66.2" y="268" class="st30" width="2.9" height="2.9"/>
			<rect x="69.1" y="268" class="st31" width="2.9" height="2.9"/>
			<rect x="72" y="268" class="st30" width="2.9" height="2.9"/>
			<rect x="75" y="268" class="st31" width="2.9" height="2.9"/>
			<rect x="77.9" y="268" class="st30" width="2.9" height="2.9"/>
			<rect x="80.8" y="268" class="st31" width="2.9" height="2.9"/>
			<rect x="83.7" y="268" class="st30" width="2.9" height="2.9"/>
			<rect x="86.6" y="268" class="st31" width="2.9" height="2.9"/>
		</g>
		<rect x="57.5" y="285.5" class="st19" width="2.9" height="2.9"/>
		<rect x="57.5" y="282.5" class="st21" width="2.9" height="2.9"/>
		<rect x="57.5" y="279.6" class="st23" width="2.9" height="2.9"/>
		<rect x="57.5" y="276.7" class="st25" width="2.9" height="2.9"/>
		<rect x="57.5" y="273.8" class="st27" width="2.9" height="2.9"/>
		<rect x="57.5" y="270.9" class="st29" width="2.9" height="2.9"/>
		<rect x="57.5" y="268" class="st31" width="2.9" height="2.9"/>
		<rect x="57.5" y="288.4" class="st32" width="2.9" height="2.9"/>
		<rect x="57.5" y="291.3" class="st32" width="2.9" height="2.9"/>
		<rect x="57.5" y="294.2" class="st32" width="2.9" height="2.9"/>
		<rect x="57.5" y="297.1" class="st32" width="2.9" height="2.9"/>
		<rect x="60.4" y="288.4" class="st33" width="0.6" height="2.9"/>
		<rect x="60.4" y="291.3" class="st33" width="0.6" height="2.9"/>
		<rect x="60.4" y="294.2" class="st33" width="0.6" height="2.9"/>
		<rect x="60.4" y="297.1" class="st33" width="0.6" height="2.9"/>
	</g>
</g>
<g id="Layer_7">
</g>
</svg>
