<svg xmlns="http://www.w3.org/2000/svg" viewBox="0 0 80 64"><defs><style>.cls-1{fill:#e9e9ff;}.cls-2{fill:#9896e8;}</style></defs><title>Artboard 1</title><g id="message"><rect id="_Rectangle_" data-name="&lt;Rectangle&gt;" class="cls-1" x="10" y="10" width="60" height="44"/><rect id="_Rectangle_2" data-name="&lt;Rectangle&gt;" class="cls-2" x="37" y="37" width="6" height="6" transform="translate(80 80) rotate(-180)"/><rect id="_Rectangle_3" data-name="&lt;Rectangle&gt;" class="cls-2" x="25" y="25" width="6" height="6" transform="translate(56 56) rotate(-180)"/><rect id="_Rectangle_4" data-name="&lt;Rectangle&gt;" class="cls-2" x="31" y="31" width="6" height="6" transform="translate(68 68) rotate(-180)"/><rect id="_Rectangle_5" data-name="&lt;Rectangle&gt;" class="cls-2" x="19" y="19" width="6" height="6" transform="translate(44 44) rotate(-180)"/><rect id="_Rectangle_6" data-name="&lt;Rectangle&gt;" class="cls-2" x="49" y="25" width="6" height="6"/><rect id="_Rectangle_7" data-name="&lt;Rectangle&gt;" class="cls-2" x="43" y="31" width="6" height="6"/><rect id="_Rectangle_8" data-name="&lt;Rectangle&gt;" class="cls-2" x="55" y="19" width="6" height="6"/><rect id="_Rectangle_9" data-name="&lt;Rectangle&gt;" class="cls-2" x="61" y="13" width="6" height="6"/><rect id="_Rectangle_10" data-name="&lt;Rectangle&gt;" class="cls-2" x="13" y="13" width="6" height="6"/><path class="cls-2" d="M0,0V64H80V0ZM70,14V54H10V10H70Z"/></g></svg>