<svg id="telephone" xmlns="http://www.w3.org/2000/svg" viewBox="0 0 60 80"><defs><style>.cls-1{fill:#9896e8;}.cls-2{fill:#e9e9ff;}</style></defs><title>Artboard 2</title><rect id="_Rectangle_" data-name="&lt;Rectangle&gt;" class="cls-1" y="16" width="10" height="54"/><rect id="_Rectangle_2" data-name="&lt;Rectangle&gt;" class="cls-1" x="50" width="10" height="70"/><rect id="_Rectangle_3" data-name="&lt;Rectangle&gt;" class="cls-1" y="70" width="60" height="10"/><rect id="_Rectangle_4" data-name="&lt;Rectangle&gt;" class="cls-2" x="10" y="26" width="40" height="44"/><rect id="_Rectangle_5" data-name="&lt;Rectangle&gt;" class="cls-1" y="16" width="60" height="10"/><rect id="_Rectangle_6" data-name="&lt;Rectangle&gt;" class="cls-1" x="15" y="41" width="6" height="6" transform="translate(36 88) rotate(-180)"/><rect id="_Rectangle_7" data-name="&lt;Rectangle&gt;" class="cls-1" x="27" y="41" width="6" height="6" transform="translate(60 88) rotate(-180)"/><rect id="_Rectangle_8" data-name="&lt;Rectangle&gt;" class="cls-1" x="39" y="41" width="6" height="6" transform="translate(84 88) rotate(-180)"/><rect id="_Rectangle_9" data-name="&lt;Rectangle&gt;" class="cls-1" x="15" y="50" width="6" height="6" transform="translate(36 106) rotate(-180)"/><rect id="_Rectangle_10" data-name="&lt;Rectangle&gt;" class="cls-1" x="27" y="50" width="6" height="6" transform="translate(60 106) rotate(-180)"/><rect id="_Rectangle_11" data-name="&lt;Rectangle&gt;" class="cls-1" x="39" y="50" width="6" height="6" transform="translate(84 106) rotate(-180)"/><rect id="_Rectangle_12" data-name="&lt;Rectangle&gt;" class="cls-1" x="15" y="59" width="6" height="6" transform="translate(36 124) rotate(-180)"/><rect id="_Rectangle_13" data-name="&lt;Rectangle&gt;" class="cls-1" x="27" y="59" width="6" height="6" transform="translate(60 124) rotate(-180)"/><rect id="_Rectangle_14" data-name="&lt;Rectangle&gt;" class="cls-1" x="39" y="59" width="6" height="6" transform="translate(84 124) rotate(-180)"/><rect id="_Rectangle_15" data-name="&lt;Rectangle&gt;" class="cls-1" x="15" y="31" width="30" height="7" transform="translate(60 69) rotate(-180)"/></svg>